<svg xmlns="http://www.w3.org/2000/svg" viewBox="0 0 32 32" fill="none">
  <rect x="1" y="1" width="30" height="30" rx="7" fill="#bae6fd" />
  <rect x="2.5" y="2.5" width="27" height="27" rx="5.5" fill="#2563eb" />
  <path d="M10 7h14a2 2 0 0 1 2 2v14a3 3 0 0 1-3 3H9a4 4 0 0 0 3-4V9a2 2 0 0 0-2-2Z" fill="#fff" />
  <path d="M9 10H8a2 2 0 0 0-2 2v10a2 2 0 0 0 4 0V10Z" fill="#fff" />
  <rect x="14" y="10" width="10" height="5" rx="1" fill="#2563eb" />
  <path d="M15 18h8M15 22h8" stroke="#2563eb" stroke-width="2" stroke-linecap="round" />
</svg>
